<?xml version="1.0" encoding="UTF-8"?>
<svg width="1200" height="630" viewBox="0 0 1200 630" xmlns="http://www.w3.org/2000/svg">
<defs>
  <filter id="sh" x="-8%" y="-10%" width="116%" height="128%">
    <feDropShadow dx="0" dy="2" stdDeviation="5" flood-color="#1E293B" flood-opacity="0.09"/>
  </filter>
  <marker id="ah" viewBox="0 0 10 6" refX="9" refY="3" markerWidth="7" markerHeight="6" orient="auto">
    <path d="M0,0 L9,3 L0,6 Z" fill="#DC2626"/>
  </marker>
  <clipPath id="c-atk"><rect x="60"  y="235" rx="8" width="120" height="160"/></clipPath>
  <clipPath id="c-s1"> <rect x="238" y="275" rx="6" width="130" height="80"/></clipPath>
  <clipPath id="c-s2"> <rect x="426" y="275" rx="6" width="130" height="80"/></clipPath>
  <clipPath id="c-s3"> <rect x="614" y="275" rx="6" width="130" height="80"/></clipPath>
  <clipPath id="c-s4"> <rect x="802" y="275" rx="6" width="130" height="80"/></clipPath>
  <clipPath id="c-tgt"><rect x="990" y="235" rx="8" width="150" height="160"/></clipPath>
</defs>

<!-- Canvas -->
<rect width="1200" height="630" fill="#F8FAFC"/>

<!-- Header -->
<rect width="1200" height="76" fill="#1E293B"/>
<text x="60" y="34" font-family="Inter,'IBM Plex Sans',system-ui,sans-serif" font-size="20" font-weight="700" fill="#F8FAFC" letter-spacing="0.4">BACKUP EXEC AGENT COMPROMISE</text>
<rect x="60"  y="47" rx="3" width="90"  height="18" fill="#DC2626"/>
<text x="105" y="60" font-family="Inter,'IBM Plex Sans',system-ui,sans-serif" font-size="10" font-weight="600" fill="white" text-anchor="middle">CVE-2021-27876</text>
<rect x="156" y="47" rx="3" width="90"  height="18" fill="#DC2626"/>
<text x="201" y="60" font-family="Inter,'IBM Plex Sans',system-ui,sans-serif" font-size="10" font-weight="600" fill="white" text-anchor="middle">CVE-2021-27877</text>
<rect x="252" y="47" rx="3" width="90"  height="18" fill="#DC2626"/>
<text x="297" y="60" font-family="Inter,'IBM Plex Sans',system-ui,sans-serif" font-size="10" font-weight="600" fill="white" text-anchor="middle">CVE-2021-27878</text>
<rect x="348" y="47" rx="3" width="106" height="18" fill="#7F1D1D"/>
<text x="401" y="60" font-family="Inter,'IBM Plex Sans',system-ui,sans-serif" font-size="10" font-weight="600" fill="#FCA5A5" text-anchor="middle">CVSS 9.8 CRITICAL</text>
<text x="464" y="61" font-family="Inter,'IBM Plex Sans',system-ui,sans-serif" font-size="11" fill="#94A3B8">· Unauthenticated · No credentials required</text>

<!-- Footer -->
<line x1="0" y1="556" x2="1200" y2="556" stroke="#E2E8F0" stroke-width="1"/>
<rect y="557" width="1200" height="73" fill="#FFFFFF"/>
<text x="60" y="587" font-family="Inter,'IBM Plex Sans',system-ui,sans-serif" font-size="12" font-weight="700" fill="#DC2626">Remediation</text>
<text x="140" y="587" font-family="Inter,'IBM Plex Sans',system-ui,sans-serif" font-size="12" fill="#64748B">Upgrade to Backup Exec 21.3 or later · restrict TCP/10000 to authorised management hosts only</text>
<rect x="60"  y="606" rx="2" width="10" height="10" fill="#DC2626"/>
<text x="76"  y="615" font-family="Inter,'IBM Plex Sans',system-ui,sans-serif" font-size="11" fill="#64748B">Attacker-controlled</text>
<rect x="196" y="606" rx="2" width="10" height="10" fill="#1D4ED8"/>
<text x="212" y="615" font-family="Inter,'IBM Plex Sans',system-ui,sans-serif" font-size="11" fill="#64748B">Target system</text>

<!-- ── ARROWS ── -->
<line x1="182" y1="315" x2="236" y2="315" stroke="#DC2626" stroke-width="2" marker-end="url(#ah)"/>
<line x1="370" y1="315" x2="424" y2="315" stroke="#DC2626" stroke-width="2" marker-end="url(#ah)"/>
<line x1="558" y1="315" x2="612" y2="315" stroke="#DC2626" stroke-width="2" marker-end="url(#ah)"/>
<line x1="746" y1="315" x2="800" y2="315" stroke="#DC2626" stroke-width="2" marker-end="url(#ah)"/>
<line x1="934" y1="315" x2="988" y2="315" stroke="#DC2626" stroke-width="2" marker-end="url(#ah)"/>

<!-- ════════════════════════════════════════════════════════
     ATTACKER NODE  x=60 y=235 w=120 h=160
     ════════════════════════════════════════════════════════ -->
<rect x="60" y="235" rx="8" width="120" height="160" fill="white" stroke="#DC2626" stroke-width="1.5" filter="url(#sh)"/>
<rect x="60" y="235" width="4" height="160" fill="#DC2626" clip-path="url(#c-atk)"/>

<!-- Laptop: screen frame -->
<rect x="79" y="244" rx="3" width="64" height="44" fill="#1E293B"/>
<!-- Screen glass -->
<rect x="83" y="248" rx="1" width="56" height="37" fill="#0B1120"/>
<!-- Scanlines / terminal output -->
<rect x="88" y="254" rx="1" width="12" height="2.5" fill="#DC2626"/>
<rect x="103" y="254" rx="1" width="28" height="2.5" fill="#334155"/>
<rect x="88" y="261" rx="1" width="34" height="2.5" fill="#475569"/>
<rect x="88" y="268" rx="1" width="8"  height="2.5" fill="#22C55E"/>
<rect x="99" y="268" rx="1" width="20" height="2.5" fill="#22C55E"/>
<rect x="88" y="275" rx="1" width="24" height="2.5" fill="#475569"/>
<!-- Hinge strip -->
<rect x="73" y="288" rx="1" width="76" height="3.5" fill="#64748B"/>
<!-- Keyboard base -->
<rect x="70" y="291" rx="3" width="82" height="11" fill="#475569"/>
<!-- Key rows -->
<rect x="76" y="294" rx="0.8" width="5" height="4" fill="#64748B"/>
<rect x="83" y="294" rx="0.8" width="5" height="4" fill="#64748B"/>
<rect x="90" y="294" rx="0.8" width="5" height="4" fill="#64748B"/>
<rect x="97" y="294" rx="0.8" width="5" height="4" fill="#64748B"/>
<rect x="104" y="294" rx="0.8" width="5" height="4" fill="#64748B"/>
<rect x="111" y="294" rx="0.8" width="5" height="4" fill="#64748B"/>
<rect x="118" y="294" rx="0.8" width="5" height="4" fill="#64748B"/>
<rect x="125" y="294" rx="0.8" width="5" height="4" fill="#64748B"/>
<!-- Touchpad -->
<rect x="97" y="300" rx="1.5" width="28" height="0" fill="#64748B"/>

<!-- Separator and label -->
<line x1="70" y1="317" x2="170" y2="317" stroke="#F1F5F9" stroke-width="1"/>
<text x="120" y="339" font-family="Inter,'IBM Plex Sans',system-ui,sans-serif" font-size="13" font-weight="700" fill="#1E293B" text-anchor="middle">ATTACKER</text>

<!-- ════════════════════════════════════════════════════════
     STEP 1  x=238 y=275 w=130 h=80 — Connect to Agent
     ════════════════════════════════════════════════════════ -->
<rect x="238" y="275" rx="6" width="130" height="80" fill="white" stroke="#E2E8F0" stroke-width="1" filter="url(#sh)"/>
<rect x="238" y="275" width="3" height="80" fill="#DC2626" clip-path="url(#c-s1)"/>
<text x="248" y="289" font-family="'Courier New',monospace" font-size="9" font-weight="700" fill="#DC2626">01</text>
<text x="303" y="308" font-family="Inter,'IBM Plex Sans',system-ui,sans-serif" font-size="12" font-weight="600" fill="#1E293B" text-anchor="middle">Connect to Agent</text>
<text x="303" y="326" font-family="Inter,'IBM Plex Sans',system-ui,sans-serif" font-size="10" fill="#64748B" text-anchor="middle">TCP port 10000</text>

<!-- ════════════════════════════════════════════════════════
     STEP 2  x=426 y=275 w=130 h=80 — Forge Certificate
     ════════════════════════════════════════════════════════ -->
<rect x="426" y="275" rx="6" width="130" height="80" fill="white" stroke="#E2E8F0" stroke-width="1" filter="url(#sh)"/>
<rect x="426" y="275" width="3" height="80" fill="#DC2626" clip-path="url(#c-s2)"/>
<text x="436" y="289" font-family="'Courier New',monospace" font-size="9" font-weight="700" fill="#DC2626">02</text>
<text x="491" y="308" font-family="Inter,'IBM Plex Sans',system-ui,sans-serif" font-size="12" font-weight="600" fill="#1E293B" text-anchor="middle">Forge Certificate</text>
<text x="491" y="326" font-family="Inter,'IBM Plex Sans',system-ui,sans-serif" font-size="10" fill="#64748B" text-anchor="middle">Any cert accepted</text>

<!-- ════════════════════════════════════════════════════════
     STEP 3  x=614 y=275 w=130 h=80 — Bypass Auth
     ════════════════════════════════════════════════════════ -->
<rect x="614" y="275" rx="6" width="130" height="80" fill="white" stroke="#E2E8F0" stroke-width="1" filter="url(#sh)"/>
<rect x="614" y="275" width="3" height="80" fill="#DC2626" clip-path="url(#c-s3)"/>
<text x="624" y="289" font-family="'Courier New',monospace" font-size="9" font-weight="700" fill="#DC2626">03</text>
<text x="679" y="308" font-family="Inter,'IBM Plex Sans',system-ui,sans-serif" font-size="12" font-weight="600" fill="#1E293B" text-anchor="middle">Bypass Auth</text>
<text x="679" y="326" font-family="Inter,'IBM Plex Sans',system-ui,sans-serif" font-size="10" fill="#64748B" text-anchor="middle">SHA hash of null bytes</text>

<!-- ════════════════════════════════════════════════════════
     STEP 4  x=802 y=275 w=130 h=80 — Execute Command
     ════════════════════════════════════════════════════════ -->
<rect x="802" y="275" rx="6" width="130" height="80" fill="white" stroke="#E2E8F0" stroke-width="1" filter="url(#sh)"/>
<rect x="802" y="275" width="3" height="80" fill="#DC2626" clip-path="url(#c-s4)"/>
<text x="812" y="289" font-family="'Courier New',monospace" font-size="9" font-weight="700" fill="#DC2626">04</text>
<text x="867" y="308" font-family="Inter,'IBM Plex Sans',system-ui,sans-serif" font-size="12" font-weight="600" fill="#1E293B" text-anchor="middle">Execute Command</text>
<text x="867" y="326" font-family="Inter,'IBM Plex Sans',system-ui,sans-serif" font-size="10" fill="#64748B" text-anchor="middle">NDMP 0xf30f</text>

<!-- ════════════════════════════════════════════════════════
     TARGET NODE  x=990 y=235 w=150 h=160
     ════════════════════════════════════════════════════════ -->
<rect x="990" y="235" rx="8" width="150" height="160" fill="white" stroke="#1D4ED8" stroke-width="1.5" filter="url(#sh)"/>
<rect x="990" y="235" width="4" height="160" fill="#1D4ED8" clip-path="url(#c-tgt)"/>

<!-- Server chassis -->
<rect x="1015" y="249" rx="4" width="100" height="56" fill="#1E293B"/>
<!-- Rack unit 1 -->
<rect x="1019" y="253" rx="2" width="92" height="14" fill="#334155"/>
<circle cx="1024" cy="260" r="3" fill="#22C55E"/>
<rect x="1031" y="256" rx="1" width="72" height="8" fill="#1E293B"/>
<rect x="1034" y="258" rx="0.5" width="16" height="4" fill="#475569"/>
<rect x="1053" y="258" rx="0.5" width="16" height="4" fill="#475569"/>
<rect x="1072" y="258" rx="0.5" width="16" height="4" fill="#475569"/>
<!-- Rack unit 2 -->
<rect x="1019" y="270" rx="2" width="92" height="14" fill="#334155"/>
<circle cx="1024" cy="277" r="3" fill="#22C55E"/>
<rect x="1031" y="273" rx="1" width="72" height="8" fill="#1E293B"/>
<rect x="1034" y="275" rx="0.5" width="16" height="4" fill="#475569"/>
<rect x="1053" y="275" rx="0.5" width="16" height="4" fill="#475569"/>
<rect x="1072" y="275" rx="0.5" width="16" height="4" fill="#475569"/>
<!-- Rack unit 3 -->
<rect x="1019" y="287" rx="2" width="92" height="14" fill="#334155"/>
<circle cx="1024" cy="294" r="3" fill="#EF4444"/>
<rect x="1031" y="290" rx="1" width="72" height="8" fill="#1E293B"/>
<rect x="1034" y="292" rx="0.5" width="16" height="4" fill="#475569"/>
<rect x="1053" y="292" rx="0.5" width="16" height="4" fill="#475569"/>
<rect x="1072" y="292" rx="0.5" width="16" height="4" fill="#475569"/>

<!-- Separator and label -->
<line x1="1000" y1="317" x2="1130" y2="317" stroke="#F1F5F9" stroke-width="1"/>
<text x="1065" y="334" font-family="Inter,'IBM Plex Sans',system-ui,sans-serif" font-size="12" font-weight="600" fill="#1E293B" text-anchor="middle">Backup Exec Agent</text>
<!-- SYSTEM outcome badge -->
<rect x="1003" y="349" rx="4" width="124" height="24" fill="#DC2626"/>
<text x="1065" y="361" font-family="Inter,'IBM Plex Sans',system-ui,sans-serif" font-size="10" font-weight="700" fill="white" text-anchor="middle" dominant-baseline="middle">NT AUTHORITY\SYSTEM</text>

</svg>
